HIERARCHY
ROOT Hips
{
	OFFSET 0.000000 0.000000 0.000000 
	CHANNELS 6 Xposition Yposition Zposition Zrotation Yrotation Xrotation
	JOINT LeftUpLeg
	{
		OFFSET 1.363060 -1.794630 0.839290 
		CHANNELS 3 Zrotation Yrotation Xrotation
		JOINT LeftLeg
		{
			OFFSET 2.448110 -6.726130 0.000000 
			CHANNELS 3 Zrotation Yrotation Xrotation
			JOINT LeftFoot
			{
				OFFSET 2.562200 -7.039590 0.000000 
				CHANNELS 3 Zrotation Yrotation Xrotation
				JOINT LeftToeBase
				{
					OFFSET 0.157640 -0.433110 2.322550 
					CHANNELS 3 Zrotation Yrotation Xrotation
					End Site
					{
						OFFSET 0.000000 0.000000 0.000000 
					}
				}
			}
		}
	}
	JOINT RightUpLeg
	{
		OFFSET -1.305520 -1.794630 0.839290 
		CHANNELS 3 Zrotation Yrotation Xrotation
		JOINT RightLeg
		{
			OFFSET -2.542530 -6.985550 0.000000 
			CHANNELS 3 Zrotation Yrotation Xrotation
			JOINT RightFoot
			{
				OFFSET -2.568260 -7.056230 0.000000 
				CHANNELS 3 Zrotation Yrotation Xrotation
				JOINT RightToeBase
				{
					OFFSET -0.164730 -0.452590 2.363150 
					CHANNELS 3 Zrotation Yrotation Xrotation
					End Site
					{
						OFFSET 0.000000 0.000000 0.000000 
					}
				}
			}
		}
	}
	JOINT Spine
	{
		OFFSET 0.028270 2.035590 -0.193380 
		CHANNELS 3 Zrotation Yrotation Xrotation
		JOINT Spine1
		{
			OFFSET 0.056720 2.048850 -0.042750 
			CHANNELS 3 Zrotation Yrotation Xrotation
			JOINT Neck1
			{
				OFFSET -0.054170 1.746240 0.172020 
				CHANNELS 3 Zrotation Yrotation Xrotation
				JOINT Head
				{
					OFFSET 0.104070 1.761360 -0.123970 
					CHANNELS 3 Zrotation Yrotation Xrotation
					End Site
					{
						OFFSET 0.000000 0.000000 0.000000 
					}
				}
			}
			JOINT LeftArm
			{
				OFFSET 3.362410 1.200890 -0.311210 
				CHANNELS 3 Zrotation Yrotation Xrotation
				JOINT LeftForeArm
				{
					OFFSET 4.983000 -0.000000 -0.000000 
					CHANNELS 3 Zrotation Yrotation Xrotation
					JOINT LeftHand
					{
						OFFSET 3.483560 -0.000000 -0.000000 
						CHANNELS 3 Zrotation Yrotation Xrotation
						JOINT LeftHandIndex1
						{
							OFFSET 0.715260 -0.000000 -0.000000 
							CHANNELS 3 Zrotation Yrotation Xrotation
							End Site
							{
								OFFSET 0.000000 0.000000 0.000000 
							}
						}
					}
				}
			}
			JOINT RightArm
			{
				OFFSET -3.136600 1.374050 -0.404650 
				CHANNELS 3 Zrotation Yrotation Xrotation
				JOINT RightForeArm
				{
					OFFSET -5.241900 -0.000000 -0.000000 
					CHANNELS 3 Zrotation Yrotation Xrotation
					JOINT RightHand
					{
						OFFSET -3.444170 -0.000000 -0.000000 
						CHANNELS 3 Zrotation Yrotation Xrotation
						JOINT RightHandIndex1
						{
							OFFSET -0.622530 -0.000000 -0.000000 
							CHANNELS 3 Zrotation Yrotation Xrotation
							End Site
							{
								OFFSET 0.000000 0.000000 0.000000 
							}
						}
					}
				}
			}
		}
	}
}
MOTION
Frames: 13
Frame Time: 0.041667
9.382293 17.511296 17.481632 -177.189416 -0.830996 -178.757444 -15.868450 -12.235482 -17.069804 1.085095 13.025572 37.108491 -0.398627 5.068166 -10.197242 3.100100 -10.855300 -31.793500 31.186220 8.964640 -13.263495 -0.294010 -11.564931 34.406512 2.623964 -14.488539 -14.895556 -0.039600 1.283800 -3.530100 0.391809 1.561024 7.510091 -4.971905 0.711581 -17.064005 15.243375 -4.335240 3.270292 2.927000 -2.230800 2.240000 -89.260073 2.419151 31.422398 31.586988 -32.231372 -10.216010 0.925392 0.666689 9.232372 -7.125000 0.000000 0.000000 86.641133 -0.208916 44.879996 -27.823962 31.534263 -8.795154 0.564259 -0.444968 15.042106 7.125000 0.000000 0.000000 
9.375109 17.556718 17.449999 -177.171062 -0.612738 -178.887026 -15.879861 -12.266350 -16.294644 0.818953 12.673410 36.113823 -0.656099 5.672626 -9.658559 2.947900 -10.610200 -30.976400 31.206886 9.038203 -12.375915 -0.068217 -11.180363 33.357505 2.748673 -14.747519 -14.333620 -0.048100 1.415500 -3.892800 0.362668 1.581365 7.410084 -4.991158 0.710588 -16.998583 15.299006 -4.304346 3.678185 2.948500 -2.181700 2.357800 -89.312249 2.509115 31.270513 31.593899 -32.221290 -10.206082 0.908907 0.674760 8.836507 -7.125000 0.000000 0.000000 86.710952 -0.306466 45.319329 -27.966923 31.673258 -8.861464 0.571022 -0.440324 14.583510 7.125000 0.000000 0.000000 
9.368851 17.602488 17.418713 -177.229047 -0.310558 -178.914658 -15.934276 -12.221740 -15.593537 0.553694 12.326179 35.114872 -0.886266 6.228564 -9.245048 2.837100 -10.426600 -30.369500 31.149349 9.176708 -11.529105 0.167285 -10.779962 32.252737 2.854535 -14.950600 -13.807375 -0.051200 1.460300 -4.016400 0.181472 1.680344 7.122096 -4.999314 0.744337 -16.915199 15.222339 -4.421881 4.236548 2.911600 -2.195900 2.530200 -89.414076 2.700269 31.045029 31.541023 -32.150193 -10.159887 0.904263 0.678177 8.585886 -7.125000 0.000000 0.000000 86.836491 -0.510735 45.666790 -28.085218 31.776660 -8.906162 0.572108 -0.438980 13.989855 7.125000 0.000000 0.000000 
9.359929 17.646636 17.386268 -177.314852 0.014401 -178.918266 -16.001488 -12.219607 -14.894445 0.288575 11.974826 34.102506 -1.110717 6.786274 -8.931443 2.742500 -10.266000 -29.842600 31.078197 9.475698 -10.613264 0.410413 -10.360406 31.107907 2.949441 -15.155692 -13.422255 -0.047400 1.405500 -3.865200 -0.102548 1.785158 6.966942 -5.011120 0.781843 -16.741254 15.141020 -4.496423 4.688250 2.863900 -2.196900 2.675900 -89.444867 2.834110 30.800133 31.477574 -32.072603 -10.110037 0.909506 0.680637 8.284326 -7.125000 0.000000 0.000000 87.063132 -0.667433 45.622708 -28.247050 31.938668 -8.995767 0.578701 -0.428880 13.979525 7.125000 0.000000 0.000000 
9.351934 17.692986 17.353244 -177.289342 0.363112 -178.968994 -15.982929 -12.260554 -14.129949 0.024459 11.607214 33.066200 -1.399001 7.519270 -8.647879 2.724100 -10.234500 -29.739400 31.137355 9.835150 -9.612861 0.651747 -9.932172 29.952461 3.042308 -15.372557 -13.045281 -0.036900 1.239600 -3.408300 -0.210282 1.866486 6.829146 -5.044028 0.805830 -16.602675 15.130540 -4.470539 5.042622 2.845700 -2.155600 2.775600 -89.469720 2.933094 30.426692 31.386480 -31.978309 -10.047623 0.920577 0.684255 7.959879 -7.125000 0.000000 0.000000 87.296379 -0.871818 45.873194 -28.386278 32.077656 -9.075862 0.579538 -0.417182 13.118805 7.125000 0.000000 0.000000 
9.344286 17.739567 17.320915 -177.258330 0.733253 -178.971889 -15.960672 -12.354412 -13.360559 -0.238852 11.232478 32.006287 -1.667217 8.195320 -8.377206 2.725900 -10.237500 -29.749200 31.185077 10.158918 -8.650665 0.891652 -9.496012 28.771061 3.133343 -15.570009 -12.593642 -0.029000 1.099500 -3.022500 -0.254757 1.953507 6.402861 -5.084402 0.828274 -16.535097 15.164134 -4.443499 5.438024 2.851900 -2.112800 2.862300 -89.563582 3.162666 30.000113 31.200017 -31.780691 -9.920691 0.935404 0.684608 7.835117 -7.125000 0.000000 0.000000 87.499218 -1.183087 46.075343 -28.446968 32.133765 -9.112910 0.580074 -0.410094 12.719356 7.125000 0.000000 0.000000 
9.335712 17.780354 17.283836 -177.283971 0.976137 -178.945081 -15.980217 -12.507164 -12.575416 -0.504169 10.844774 30.915112 -1.893004 8.760491 -8.165511 2.632300 -10.074600 -29.218800 31.157064 10.389689 -7.701716 1.135062 -9.034490 27.537755 3.226454 -15.780533 -12.188705 -0.023600 0.992700 -2.728700 -0.283178 2.003263 6.025104 -5.091315 0.845043 -16.368649 15.366681 -4.421711 5.786369 2.938000 -2.075700 2.944300 -89.654081 3.468142 29.727871 31.031619 -31.575424 -9.791062 0.946927 0.678573 7.771573 -7.125000 0.000000 0.000000 87.633552 -1.463231 46.233979 -28.383663 32.055668 -9.077206 0.585303 -0.407883 12.571202 7.125000 0.000000 0.000000 
9.329107 17.824618 17.249074 -177.377851 1.061636 -178.942868 -16.063773 -12.774484 -11.759252 -0.772318 10.441150 29.788246 -2.136635 9.368898 -7.948279 2.571000 -9.965800 -28.866100 31.032225 10.533315 -6.772043 1.378185 -8.550133 26.264070 3.325634 -16.016311 -11.841694 -0.015300 0.798200 -2.193700 -0.198715 1.974482 5.978379 -4.969025 0.854868 -16.097248 15.543675 -4.394990 6.172607 3.025200 -2.031700 3.075900 -89.731070 3.644890 29.530368 30.950764 -31.477277 -9.746847 0.930025 0.705404 7.571597 -7.125000 0.000000 0.000000 87.687094 -1.532421 46.333329 -28.246032 31.901691 -8.992280 0.598100 -0.406048 12.170390 7.125000 0.000000 0.000000 
9.323777 17.876645 17.215470 -177.502005 1.218940 -178.919315 -16.184881 -13.137638 -10.908808 -1.039477 10.030965 28.642494 -2.422325 10.090851 -7.721534 2.529800 -9.891800 -28.627100 30.863516 10.749172 -5.845145 1.620667 -8.051589 24.953244 3.454502 -16.343082 -11.417244 -0.013000 0.736700 -2.024500 -0.190604 1.973412 5.948034 -4.825521 0.899743 -15.841730 15.517534 -4.381809 6.675032 3.018300 -1.985400 3.255900 -89.770113 3.691386 29.299033 30.753510 -31.248306 -9.610966 0.937627 0.711782 7.488747 -7.125000 0.000000 0.000000 87.785318 -1.593398 46.515580 -28.124509 31.771104 -8.922874 0.613925 -0.396711 11.406130 7.125000 0.000000 0.000000 
9.317056 17.926239 17.172365 -177.593275 1.553216 -178.861122 -16.289189 -13.413905 -10.039038 -1.293922 9.629278 27.526680 -2.715325 10.846877 -7.578100 2.484400 -9.809600 -28.362200 30.773415 11.052083 -4.844645 1.855881 -7.546773 23.628910 3.623938 -16.801206 -10.816521 -0.023900 0.997200 -2.741000 -0.402068 2.053177 5.543446 -4.795352 0.933396 -15.667070 15.556974 -4.404712 7.343627 3.025700 -1.944900 3.472100 -89.752478 3.957685 29.028815 30.498212 -30.956669 -9.437456 0.957807 0.711805 7.538022 -7.125000 0.000000 0.000000 88.061337 -1.975890 46.590117 -28.028264 31.670879 -8.884429 0.623983 -0.384868 11.184890 7.125000 0.000000 0.000000 
9.306975 17.967838 17.130419 -177.612331 1.889407 -178.757030 -16.348366 -13.757657 -9.219224 -1.532918 9.241598 26.451260 -2.996765 11.576329 -7.487693 2.401900 -9.657300 -27.874000 30.755356 11.472342 -3.881835 2.080539 -7.061730 22.339878 3.820964 -17.380122 -10.185436 -0.047700 1.409300 -3.875800 -0.425956 2.097735 5.053837 -4.804772 0.939687 -15.466021 15.796061 -4.494977 8.328550 2.782000 -1.888100 3.388900 -89.819822 4.332487 28.647549 30.273207 -30.702307 -9.295939 0.978504 0.716138 7.631286 -7.125000 0.000000 0.000000 88.264026 -2.384918 46.668965 -27.879429 31.508028 -8.814493 0.629820 -0.381567 11.243574 7.125000 0.000000 0.000000 
9.293070 18.000167 17.092296 -177.603872 2.137115 -178.660629 -16.406884 -14.337649 -8.360325 -1.758876 8.865215 25.420357 -3.305700 12.388574 -7.492323 2.264000 -9.395600 -27.040900 30.761761 12.143181 -2.918865 2.293393 -6.610246 21.145784 4.015107 -18.018594 -9.909360 -0.058500 1.561300 -4.294600 -0.301877 2.083247 4.911560 -4.804824 0.924179 -15.133427 15.586669 -4.498037 8.897757 2.713000 -1.851300 3.554300 -89.946492 4.537803 28.198617 30.083283 -30.487324 -9.179038 0.999386 0.720840 7.754314 -7.125000 0.000000 0.000000 88.313974 -2.564202 46.899157 -27.726003 31.333645 -8.736460 0.640167 -0.379195 11.049763 7.125000 0.000000 0.000000 
9.280556 18.026238 17.050234 -177.702739 2.331988 -178.618581 -16.581207 -15.014698 -7.428080 -1.969562 8.519583 24.482377 -3.615740 13.238283 -7.728087 2.119300 -9.110300 -26.140800 30.711926 12.885901 -1.866062 2.488093 -6.178869 20.058289 4.181517 -18.603799 -10.023111 -0.043900 1.352900 -3.720300 -0.475475 2.086734 4.713258 -4.780499 0.922935 -14.837207 15.556163 -4.508489 9.366637 2.690200 -1.822000 3.680200 -89.966803 4.853290 27.974799 29.957911 -30.327289 -9.094966 1.016501 0.721327 7.750951 -7.125000 0.000000 0.000000 88.460493 -2.881915 46.909399 -27.639220 31.232598 -8.698078 0.650509 -0.373727 11.123687 7.125000 0.000000 0.000000 
